<svg width="1968" height="1080" viewBox="0 0 1968 1080" fill="none" xmlns="http://www.w3.org/2000/svg">
<g clip-path="url(#clip0)">
<rect x="0.5" y="0.5" width="1967" height="1079" fill="#2D46B9"/>
<mask id="mask0" mask-type="alpha" maskUnits="userSpaceOnUse" x="0" y="0" width="1980" height="1080">
<rect width="1980" height="1080" fill="#2D46B9"/>
</mask>
<g mask="url(#mask0)">
<path d="M2132 57.5C2132 173.204 2038.2 267 1922.5 267C1806.8 267 1713 173.204 1713 57.5C1713 -58.2037 1806.8 -152 1922.5 -152C2038.2 -152 2132 -58.2037 2132 57.5Z" fill="#1ED760"/>
<path d="M2116 855C2116 965.457 2026.46 1055 1916 1055C1805.54 1055 1716 965.457 1716 855C1716 744.543 1805.54 655 1916 655C2026.46 655 2116 744.543 2116 855Z" fill="#1ED760"/>
<path d="M392 885.5C392 1036.55 269.55 1159 118.5 1159C-32.5498 1159 -155 1036.55 -155 885.5C-155 734.45 -32.5498 612 118.5 612C269.55 612 392 734.45 392 885.5Z" fill="#1ED760"/>
<path d="M522 884.5C522 955.469 464.469 1013 393.5 1013C322.531 1013 265 955.469 265 884.5C265 813.531 322.531 756 393.5 756C464.469 756 522 813.531 522 884.5Z" fill="#1ED760"/>
</g>
<mask id="mask1" mask-type="alpha" maskUnits="userSpaceOnUse" x="-155" y="612" width="547" height="547">
<path d="M392 885.5C392 1036.55 269.55 1159 118.5 1159C-32.5498 1159 -155 1036.55 -155 885.5C-155 734.45 -32.5498 612 118.5 612C269.55 612 392 734.45 392 885.5Z" fill="#1ED760"/>
</mask>
<g mask="url(#mask1)">
<path d="M524 885.5C524 958.125 465.125 1017 392.5 1017C319.875 1017 261 958.125 261 885.5C261 812.875 319.875 754 392.5 754C465.125 754 524 812.875 524 885.5Z" fill="#2D46B9"/>
</g>
</g>
<rect x="0.5" y="0.5" width="1967" height="1079" stroke="black"/>
<defs>
<clipPath id="clip0">
</clipPath>
</defs>
</svg>
